<svg xmlns="http://www.w3.org/2000/svg" xml:space="preserve" id="Layer_1" x="0" y="0" class="[ h-full ] original" viewBox="0 0 582.2 223.7"><style>.st0{fill:#58595b}.st1{fill:#fff}.st2{fill:#96215f}</style><rect class="st2"/><rect x="189.1" y="166.9" class="st1"/><rect x="428.6" y="166.9" class="st1"/><path d="M159.9 130.9 152 123l-40.3 40.4L80.3 132l-16.6-16.6 11.6-11.7 37.8-37.8 15.5 15.5 7.9-7.8-23.4-23.4-25.9 25.9L48 115.4l36.4 36.4 27.3 27.3z" style="fill:#ec008c"/><path d="m135.1 106.8-10.5-10.7-12.5-12.8L82 113.1l7 7.1 23-22.7 5.6 5.7-23 22.7 6.7 6.8 11.6 11.8 30.1-29.7zM108.6 126l15.9-15.8 4.4 4.5-15.9 15.8z" class="st2"/><path d="M451.5 109.5v-32c0-2.9.7-5.2 2-7.1s3.6-2.8 6.7-2.8 5.4.9 6.8 2.8 2.1 4.3 2.1 7.1v31.9h3.8V77.8c0-1.9-.2-3.7-.7-5.3s-1.3-3-2.3-4.2-2.4-2.1-4-2.8-3.5-1-5.7-1-4.1.3-5.6 1c-1.6.7-2.9 1.6-3.9 2.8s-1.8 2.6-2.3 4.2-.7 3.4-.7 5.3v31.7zM422 98.7c1.3.8 2.5 1.8 3.5 2.8s1.9 2.2 2.6 3.5 1.4 2.8 2 4.5h4.1c-.7-1.9-1.4-3.6-2.2-5.1q-1.2-2.25-3-4.2c-1.2-1.3-2.6-2.5-4.2-3.5-1.6-1.1-3.6-2.1-5.9-3.1-1.3-.6-4.2-1.7-4.2-6.1v-9.9c0-1.4.2-2.7.5-4 .3-1.2.8-2.3 1.6-3.2.7-.9 1.6-1.6 2.8-2.1 1.1-.5 2.5-.8 4.1-.8 3.2 0 5.4.9 6.7 2.8s2 4.3 2 7.1v6.9h3.8v-6.7c0-1.9-.2-3.7-.7-5.3s-1.3-3-2.3-4.2-2.3-2.1-3.9-2.8-3.4-1-5.6-1-4.1.3-5.7 1-2.9 1.6-3.9 2.8-1.8 2.6-2.3 4.2-.7 3.4-.7 5.3V89c0 .7.1 1.4.3 2s.4 1.2.7 1.8h-.7c-.7 0-1.4 0-2.1.2v3c6.3 0 11.3 1.9 12.7 2.7M379.5 65.4c-1.6.7-2.8 1.6-3.9 2.8-1 1.2-1.7 2.6-2.2 4.2s-.7 3.4-.7 5.3v4.4h3.6v-4.6c0-1.4.1-2.7.4-3.9s.8-2.3 1.5-3.2q1.05-1.35 2.7-2.1c1.1-.5 2.4-.8 4-.8s2.9.3 4 .8q1.65.75 2.7 2.1c.7.9 1.2 2 1.5 3.2s.5 2.5.5 3.9v19.3a16 16 0 0 1-.5 3.9c-.3 1.2-.8 2.2-1.5 3.1q-1.05 1.35-2.7 2.1c-1.1.5-2.4.8-4 .8s-2.9-.3-4-.8q-1.65-.75-2.7-2.1c-.7-.9-1.2-1.9-1.5-3.1s-.4-2.5-.4-3.9v-2.2h-3.6v1.9c0 1.9.2 3.7.7 5.3s1.2 3 2.2 4.2 2.3 2.1 3.9 2.8 3.4 1 5.6 1 4.1-.3 5.6-1c1.6-.7 2.8-1.6 3.8-2.8s1.7-2.6 2.2-4.2.7-3.4.7-5.3V77.8c0-1.9-.2-3.7-.7-5.3s-1.2-3-2.2-4.2-2.3-2.1-3.8-2.8c-1.6-.7-3.4-1-5.6-1-2.2-.1-4 .3-5.6.9M360.5 72.2c-.5-1.6-1.2-3-2.2-4.1-1-1.2-2.3-2-3.8-2.7-1.6-.6-3.4-.9-5.6-.9s-4.1.3-5.6 1c-1.6.7-2.8 1.6-3.8 2.8s-1.7 2.6-2.2 4.2-.7 3.4-.7 5.3v1.9h3.6v-2.1c0-2.9.7-5.2 2-7.1s3.5-2.8 6.7-2.8 5.4.9 6.7 2.7 3.9 8.2-.2 12.7c-1.4 1.5-3.5 2.2-6.1 2.2h-4v3.2h3.8c2.8 0 4.8.9 6.3 2.4 2.4 2.3 2.2 5.7 2.2 5.7 0 3-.7 5.5-2 7.4s-3.5 2.9-6.7 2.9c-1.6 0-2.9-.3-4-.8q-1.65-.75-2.7-2.1c-.7-.9-1.2-2-1.5-3.2s-.5-2.5-.5-4v-2.1h-3.6v1.9c0 1.9.2 3.7.7 5.3s1.2 3 2.2 4.2 2.3 2.1 3.8 2.8c1.6.7 3.4 1 5.6 1s4.1-.3 5.6-1c1.6-.7 2.8-1.6 3.8-2.8s1.7-2.6 2.2-4.2.8-3.4.7-5.3c-.1-1.5-.5-4-1.6-5.8-1-1.8-3.1-3.1-6.1-4.1 2.5-.6 7-2.9 7.3-9 .2-2 .1-3.9-.3-5.5M306.9 65.4c-1.6.7-2.8 1.6-3.8 2.8s-1.7 2.6-2.2 4.2-.7 3.4-.7 5.3v4.4h3.6v-4.6c0-1.4.1-2.7.4-3.9s.8-2.3 1.5-3.2q1.05-1.35 2.7-2.1c1.1-.5 2.4-.8 4-.8s2.9.3 4 .8q1.65.75 2.7 2.1c.7.9 1.2 2 1.5 3.2s.4 2.5.4 3.9v19.3c0 1.4-.1 2.7-.4 3.9s-.8 2.2-1.5 3.1q-1.05 1.35-2.7 2.1c-1.1.5-2.4.8-4 .8s-2.9-.3-4-.8q-1.65-.75-2.7-2.1c-.7-.9-1-2-1.5-3.1-.7-1.5-.4-4.7-.4-4.7h-3.6s0 3.6.7 5.9c.5 1.6 1.2 3 2.2 4.2s2.3 2.1 3.8 2.8c1.6.7 3.4 1 5.6 1s4.1-.3 5.6-1c1.6-.7 2.8-1.6 3.9-2.8 1-1.2 1.7-2.6 2.2-4.2s.7-3.4.7-5.3V77.8c0-1.9-.2-3.7-.7-5.3s-1.2-3-2.2-4.2-2.3-2.1-3.9-2.8-3.4-1-5.6-1c-2.2-.1-4 .3-5.6.9M285.6 89c-1-1.2-2.3-2.1-3.9-2.8s-3.4-1-5.6-1c-3.9 0-6.9 1.5-8.9 4.6v-6.9h8.8c4.5 0 12.6-1.2 12.6-8.7 0-.9-.2-1.9-.6-3.1-.4-1.1-1-2.2-2-3.2-.9-1-2.2-1.8-3.7-2.5-1.6-.7-3.5-1-5.8-1h-.5c-2.2 0-4.1.3-5.6 1-1.6.7-2.9 1.6-3.9 2.8s-1.8 2.6-2.3 4.2-.7 3.4-.7 4.4v32.6h3.8V98.3c0-1.4.2-2.7.5-4 .3-1.2.8-2.3 1.6-3.2.7-.9 1.6-1.6 2.8-2.1 1.1-.5 2.5-.8 4.1-.8 3.2 0 5.4.9 6.7 2.8s2 4.3 2 7.1v11.1h3.8V98.6c0-1.9-.2-3.7-.7-5.3-.7-1.7-1.5-3.1-2.5-4.3m-18.4-11.5c0-2.9.7-5.2 2.1-7.1s3.6-2.8 6.7-2.8h1c1 0 2 .1 2.9.4 1 .3 1.9.7 2.6 1.2.8.5 1.4 1.2 1.9 2s.7 1.8.7 2.9c0 4.2-5.7 5.6-7.2 5.6h-10.8v-2.2zM230.5 87.9V77.5c0-2.9.7-5.2 2.1-7.1s3.6-2.8 6.7-2.8c1.2 0 2.2 0 3.1.1s1.7.2 2.5.2c.6.1 1.1.1 1.6.1.2 0 .4 0 .6-.1q1.05 0 2.4-.3v-3.2c-1 .2-2.1.3-3.1.3-.6 0-1.2 0-1.8-.1q-2.25-.3-5.4-.3c-2.2 0-4.1.3-5.6 1-1.6.7-2.9 1.6-3.9 2.8s-1.8 2.6-2.3 4.2-.7 3.4-.7 6.7v30.3h3.8v-11c0-1.4.2-2.7.5-4 .3-1.2.8-2.3 1.5-3.2s1.6-1.6 2.8-2.1c1.1-.5 2.5-.8 4.1-.8 3.2 0 5.4.9 6.7 2.8s2 4.3 2 7.1v11.1h3.8V98.6c0-1.9-.2-3.7-.7-5.3s-1.3-3-2.3-4.2-2.3-2.1-3.9-2.8-3.4-1-5.6-1c-3.9 0-6.9.9-8.9 4M214.5 72.4c-.5-1.6-1.3-3-2.3-4.2s-2.4-2.1-4-2.8-3.5-1-5.7-1-4.1.3-5.7 1-2.9 1.6-3.9 2.8-1.8 2.6-2.3 4.2-.7 3.4-.7 5.3v1.9h3.8v-2.1c0-2.9.7-5.2 2-7.1s3.6-2.8 6.7-2.8 5.4.9 6.8 2.8 2.1 4.3 2.1 7.1v10.9c-2-3.1-4.9-4.6-8.9-4.6-2.2 0-4.1.3-5.6 1-1.6.7-2.9 1.6-3.9 2.8s-1.8 2.6-2.2 4.2c-.5 1.6-.7 3.4-.7 5.3 0 0 .2 3.1.7 4.7s1.2 3 2.3 4.2c1 1.2 2.3 2.1 3.9 2.8s3.5 1 5.7 1 4.1-.3 5.7-1 7.1-3.5 7-10.9V77.8c-.1-1.9-.3-3.7-.8-5.4m-5.2 31.5c-1.4 1.9-3.6 2.8-6.8 2.8-3.1 0-8.5-1.2-8.7-9.7-.1-2.9.7-5.2 2-7.1s3.6-2.8 6.7-2.8 5.4.9 6.8 2.8 2.1 4.2 2.1 7.1c-.1 2.3-.7 5-2.1 6.9M195.9 138.5h2.8v6c0 1.4-.4 2.5-1.1 3.3s-1.8 1.2-3.2 1.2-2.4-.4-3.2-1.2c-.7-.8-1.1-1.9-1.1-3.3V131h2.8v13.7c0 .6.1 1.1.4 1.4s.6.4 1.1.4c.4 0 .8-.1 1.1-.4s.4-.7.4-1.4zM212.1 132.1q0 .45.3.9c.2.3.4.5.7.8l.9.9c.3.3.6.6.9 1s.5.8.7 1.2c.2.5.3 1 .3 1.6v6c0 1.4-.4 2.5-1.1 3.3s-1.8 1.2-3.2 1.2-2.5-.4-3.2-1.2-1.1-1.9-1.1-3.3v-2.1h2.8v2.2c0 .6.1 1.1.4 1.4s.6.4 1.1.4c.4 0 .8-.1 1.1-.4s.4-.7.4-1.4v-6.2q0-.75-.6-1.5c-.4-.5-.8-.9-1.3-1.4s-.9-.9-1.3-1.4-.6-1-.6-1.6V131h2.8zM228.9 130.8c1.4 0 2.4.4 3.1 1.2s1.1 1.9 1.1 3.3v9.2c0 1.4-.4 2.5-1.1 3.3s-1.8 1.2-3.2 1.2-2.5-.4-3.2-1.2-1.1-1.9-1.1-3.3V142q0-1.2.3-2.1c.2-.6.5-1 .9-1.4s.8-.6 1.3-.8q.75-.3 1.5-.3c.8 0 1.3.2 1.7.6v-3c0-.6-.1-1.1-.4-1.4s-.6-.4-1.1-.4c-.4 0-.8.1-1.1.4s-.4.7-.4 1.4v.9h-2.7v-.7c0-1.4.4-2.6 1.1-3.3.8-.7 1.9-1.1 3.3-1.1m1.3 11.1c0-.6-.1-1.1-.4-1.4s-.6-.4-1.1-.4c-.4 0-.8.1-1.1.4s-.4.7-.4 1.4v2.8c0 .6.1 1.1.4 1.4s.6.4 1.1.4c.4 0 .8-.1 1.1-.4s.4-.7.4-1.4zM246 130.8c1.4 0 2.5.4 3.2 1.2s1.1 1.9 1.1 3.3v9.2c0 1.4-.4 2.5-1.1 3.3s-1.8 1.2-3.2 1.2-2.5-.4-3.2-1.2-1.1-1.9-1.1-3.3v-2.1h2.8v2.2c0 .6.1 1.1.4 1.4s.6.4 1.1.4c.4 0 .8-.1 1.1-.4s.4-.7.4-1.4V135c0-.6-.1-1.1-.4-1.4s-.6-.4-1.1-.4c-.4 0-.8.1-1.1.4s-.4.7-.4 1.4v1.7h-2.8v-1.5c0-1.4.4-2.6 1.1-3.3s1.8-1.1 3.2-1.1M263.2 142.4c-.3 0-.6-.1-.9-.2s-.5-.3-.7-.4v.1c0 .3.1.5.2.8s.4.6.9.8c.6.3 1.1.7 1.6 1.1s.9.9 1.2 1.3c.3.5.6.9.8 1.4s.3.9.3 1.4h-2.8c-.2-.7-.5-1.3-.9-1.7-.4-.5-.9-.8-1.4-1.1s-1-.5-1.6-.6c-.4-.1-.7-.1-1-.1h-.5v-2.8h.8c-.1-.3-.2-.6-.2-.9v-6.3c0-1.4.4-2.6 1.1-3.3.7-.8 1.8-1.2 3.2-1.2s2.4.4 3.2 1.2c.7.8 1.1 1.9 1.1 3.3v2.6c0 1.4-.4 2.6-1.1 3.3-.9.9-1.9 1.3-3.3 1.3m-1.5-4.3c0 .6.1 1.1.4 1.4s.6.4 1.1.4.8-.1 1.1-.4.4-.7.4-1.4v-3c0-.6-.1-1.1-.4-1.4s-.6-.4-1.1-.4-.8.1-1.1.4-.4.7-.4 1.4zM276.1 148.8v-13.5c0-1.4.4-2.6 1.1-3.3.7-.8 1.8-1.2 3.2-1.2s2.5.4 3.2 1.2 1.1 1.9 1.1 3.3v13.5h-2.8v-13.7c0-.6-.1-1.1-.4-1.4s-.6-.4-1.1-.4c-.4 0-.8.1-1.1.4s-.4.7-.4 1.4v13.7zM301.8 135.6c0 .3 0 .7-.1 1s-.2.7-.3 1-.3.6-.5.8-.4.4-.7.5c.3.1.5.3.7.5s.4.5.5.8.2.6.3 1c.1.3.1.7.1 1v2.5c0 1.4-.4 2.5-1.1 3.3s-1.8 1.2-3.2 1.2-2.4-.4-3.2-1.2c-.7-.8-1.1-1.9-1.1-3.3V131h2.8v13.7c0 .6.1 1.1.4 1.4s.6.4 1.1.4c.4 0 .8-.1 1.1-.4s.4-.7.4-1.4v-2.8c0-.6-.1-1.1-.4-1.4s-.6-.4-1.1-.4h-.2v-2.5h.2c.4 0 .8-.1 1.1-.4s.4-.7.4-1.4v-.4c0-.2-.1-.4-.2-.7-.2-.3-.3-.5-.5-.9-.2-.3-.4-.7-.5-1-.2-.4-.2-.8-.2-1.2v-.6h2.8v.6c0 .4.1.7.2.9.2.2.3.5.5.7s.4.5.5.8c.2.3.2.7.2 1.2zM310.5 148.8v-13.5c0-1.4.4-2.6 1.1-3.3.7-.8 1.8-1.2 3.2-1.2s2.5.4 3.2 1.2 1.1 1.9 1.1 3.3v13.5h-2.8v-13.7c0-.6-.1-1.1-.4-1.4s-.6-.4-1.1-.4c-.4 0-.8.1-1.1.4s-.4.7-.4 1.4v13.7zM332.2 137.6q.75 0 1.5.3c.5.2.9.4 1.3.8s.7.8.9 1.4q.3.9.3 2.1v2.5c0 1.4-.4 2.5-1.1 3.3s-1.8 1.2-3.2 1.2-2.5-.4-3.2-1.2-1.1-1.9-1.1-3.3v-9.2c0-1.4.4-2.6 1.1-3.3.7-.8 1.8-1.2 3.1-1.2.3 0 .5 0 .8.1.3 0 .6.1.9.1h.9c.3 0 .6 0 .9-.1v2.5c-.2.1-.5.1-.8.1h-1c-.3 0-.7 0-1-.1h-.7c-.4 0-.8.1-1 .4-.3.3-.4.7-.4 1.4v3c.4-.6 1-.8 1.8-.8m1.2 4.3c0-.6-.1-1.1-.4-1.4s-.6-.4-1.1-.4c-.4 0-.8.1-1.1.4s-.4.7-.4 1.4v2.8c0 .6.1 1.1.4 1.4s.6.4 1.1.4c.4 0 .8-.1 1.1-.4s.4-.7.4-1.4zM354.5 130.8c1.4 0 2.4.4 3.1 1.2s1 1.9 1 3.3v13.5h-2.8v-13.7c0-.6-.1-1.1-.4-1.4-.2-.3-.6-.4-1-.4s-.7.1-1 .4c-.2.3-.4.7-.4 1.4v4.8h-2.8v-4.8c0-.6-.1-1.1-.4-1.4-.2-.3-.6-.4-1-.4s-.7.1-1 .4c-.2.3-.4.7-.4 1.4v13.7h-2.8v-13.5c0-1.4.3-2.6 1-3.3.7-.8 1.7-1.2 3.1-1.2.5 0 1.1.1 1.6.3s.9.6 1.1 1.1c.3-.5.6-.8 1.1-1.1.9-.2 1.4-.3 2-.3M386.4 135.6c0 .3 0 .7-.1 1s-.2.7-.3 1-.3.6-.5.8-.4.4-.7.5c.3.1.5.3.7.5s.4.5.5.8.2.6.3 1c.1.3.1.7.1 1v2.5c0 1.4-.4 2.5-1.1 3.3s-1.8 1.2-3.2 1.2-2.4-.4-3.2-1.2c-.7-.8-1.1-1.9-1.1-3.3V131h2.8v13.7c0 .6.1 1.1.4 1.4s.6.4 1.1.4c.4 0 .8-.1 1.1-.4s.4-.7.4-1.4v-2.8c0-.6-.1-1.1-.4-1.4s-.6-.4-1.1-.4h-.2v-2.5h.2c.4 0 .8-.1 1.1-.4s.4-.7.4-1.4v-.4c0-.2-.1-.4-.2-.7-.2-.3-.3-.5-.5-.9-.2-.3-.4-.7-.5-1-.2-.4-.2-.8-.2-1.2v-.6h2.8v.6c0 .4.1.7.2.9.2.2.3.5.5.7s.4.5.5.8c.2.3.2.7.2 1.2zM399.3 130.8c1.4 0 2.5.4 3.2 1.2s1.1 1.9 1.1 3.3v9.2c0 1.4-.4 2.5-1.1 3.3s-1.8 1.2-3.2 1.2-2.5-.4-3.2-1.2-1.1-1.9-1.1-3.3v-2.1h2.8v2.2c0 .6.1 1.1.4 1.4s.6.4 1.1.4c.4 0 .8-.1 1.1-.4s.4-.7.4-1.4V135c0-.6-.1-1.1-.4-1.4s-.6-.4-1.1-.4c-.4 0-.8.1-1.1.4s-.4.7-.4 1.4v1.7H395v-1.5c0-1.4.4-2.6 1.1-3.3s1.8-1.1 3.2-1.1M416.7 137.6q.75 0 1.5.3c.5.2.9.4 1.3.8s.7.8.9 1.4q.3.9.3 2.1v2.5c0 1.4-.4 2.5-1.1 3.3s-1.8 1.2-3.2 1.2-2.5-.4-3.2-1.2-1.1-1.9-1.1-3.3v-9.2c0-1.4.4-2.6 1.1-3.3.7-.8 1.8-1.2 3.1-1.2.3 0 .5 0 .8.1.3 0 .6.1.9.1h.9c.3 0 .6 0 .9-.1v2.5c-.2.1-.5.1-.8.1h-1c-.3 0-.7 0-1-.1h-.7c-.4 0-.8.1-1 .4-.3.3-.4.7-.4 1.4v3c.5-.6 1.1-.8 1.8-.8m1.2 4.3c0-.6-.1-1.1-.4-1.4s-.6-.4-1.1-.4c-.4 0-.8.1-1.1.4s-.4.7-.4 1.4v2.8c0 .6.1 1.1.4 1.4s.6.4 1.1.4c.4 0 .8-.1 1.1-.4s.4-.7.4-1.4zM438 135.2c.2.2.4.5.6.8.2.4.2.8.2 1.2v7.3c0 .7-.1 1.4-.3 1.9-.2.6-.6 1-1 1.4q-.6.6-1.5.9c-.6.2-1.2.3-1.9.3s-1.3-.1-1.9-.3q-.9-.3-1.5-.9c-.4-.4-.8-.9-1-1.4-.2-.6-.3-1.2-.3-1.9V131h2.8v13.7c0 .3.1.6.2.8s.3.4.4.5l.6.3c.2.1.5.1.7.1s.4 0 .7-.1l.6-.3c.2-.1.3-.3.4-.5s.2-.5.2-.8v-7.8c0-.3-.1-.4-.4-.4-.2 0-.4.1-.4.4v1.8H433v-1.4c0-.5.1-.9.2-1.2q.15-.6.6-.9c-.2-.2-.4-.4-.5-.7s-.1-.6-.1-.9c0-.4.1-.7.2-1.1q.15-.45.6-.9c.3-.3.5-.5.9-.6.3-.1.7-.2 1.1-.2s.8.1 1.1.2q.45.15.9.6t.6.9c.1.3.2.7.2 1.1-.1.7-.4 1.3-.8 1.6m-2.1-.9c.2 0 .3-.1.5-.2.1-.1.2-.3.2-.5s-.1-.3-.2-.5c-.1-.1-.3-.2-.5-.2s-.3.1-.5.2c-.1.1-.2.3-.2.5s.1.3.2.5c.1.1.3.2.5.2M447.5 148.8v-13.5c0-1.4.4-2.6 1.1-3.3.7-.8 1.7-1.2 3.1-1.2.3 0 .5 0 .8.1.3 0 .6.1.9.1h.9c.3 0 .6 0 .9-.1v2.5c-.2.1-.5.1-.8.1h-.9c-.3 0-.7 0-1-.1h-.7c-.4 0-.8.1-1 .4-.3.3-.4.7-.4 1.4v3c.2-.2.4-.3.7-.4s.6-.2 1-.2q.75 0 1.5.3c.5.2.9.4 1.3.8s.7.8.9 1.4.3 1.3.3 2v6.8h-2.8v-7c0-.6-.1-1.1-.4-1.4s-.6-.4-1.1-.4c-.4 0-.8.1-1.1.4s-.4.7-.4 1.4v7h-2.8zM464.7 148.8v-13.5c0-1.4.4-2.6 1.1-3.3.7-.8 1.8-1.2 3.2-1.2s2.5.4 3.2 1.2 1.1 1.9 1.1 3.3v13.5h-2.8v-13.7c0-.6-.1-1.1-.4-1.4s-.6-.4-1.1-.4c-.4 0-.8.1-1.1.4s-.4.7-.4 1.4v13.7zM251.9 170.2c.6.3 1.2.7 1.6 1.1s.8.8 1.1 1.2.5.8.7 1.2.3.9.4 1.3H254c-.2-.9-.6-1.6-1.1-2.2s-1.2-1-2.1-1.3c-.2-.1-.4-.1-.6-.1s-.4-.1-.6-.1h-.5c-.2 0-.3 0-.4.1v-1.7h.6c0-.1-.1-.3-.1-.4v-6.1c0-1.2.3-2.2.9-2.9s1.5-1.1 2.7-1.1 2.1.4 2.7 1.1.9 1.7.9 2.9v4h-1.7v-4.1c0-.7-.2-1.3-.5-1.7s-.8-.6-1.4-.6-1.1.2-1.4.6-.5.9-.5 1.7v5.8c0 .3.1.6.2.8.3.2.5.4.8.5M261.5 175v-11.8c0-1.2.3-2.2.9-2.9s1.5-1.1 2.7-1.1 2.1.4 2.7 1.1.9 1.7.9 2.9V175H267v-11.9c0-.7-.1-1.3-.4-1.7s-.8-.6-1.4-.6-1.1.2-1.4.6-.5.9-.5 1.7V175zM277.3 159.3c1.2 0 2.1.4 2.7 1.1s.9 1.7.9 2.9v8.1c0 1.2-.3 2.2-.9 2.8-.6.7-1.5 1-2.7 1s-2.1-.3-2.7-1-.9-1.6-.9-2.8v-1.8c0-1.2.3-2.1.9-2.8s1.5-1.1 2.7-1.1c.3 0 .6.1 1 .2s.6.3.9.5v-3.2c0-.7-.2-1.3-.5-1.7s-.8-.6-1.4-.6-1.1.2-1.4.6-.5 1-.5 1.7v.7h-1.7v-.6c0-1.2.3-2.2.9-2.9.6-.8 1.5-1.1 2.7-1.1m1.9 10c0-.7-.2-1.3-.5-1.7s-.8-.6-1.4-.6-1.1.2-1.4.6-.4.9-.4 1.7v2c0 .7.1 1.3.4 1.7s.8.6 1.4.6 1.1-.2 1.4-.6.5-.9.5-1.7zM290.7 165.6c.8.2 1.4.6 1.8 1.3s.6 1.5.6 2.5v1.8c0 1.2-.3 2.1-.9 2.8s-1.5 1.1-2.7 1.1-2.1-.4-2.7-1.1-.9-1.6-.9-2.8v-1.8c0-1.1.2-2 .7-2.7s1.2-1.1 2.2-1.2v-1.8c0-.3-.1-.6-.3-.8s-.4-.4-.7-.6c-.2-.2-.5-.4-.7-.7s-.4-.7-.4-1.1v-1h1.6v.7c0 .4.2.7.4.9s.5.4.8.7c.3.2.5.5.7.8s.3.8.3 1.4v1.6zm.7 3.7c0-.7-.2-1.3-.5-1.7s-.8-.6-1.4-.6-1.1.2-1.4.6-.5.9-.5 1.7v2c0 .7.2 1.3.5 1.7s.8.6 1.4.6 1.1-.2 1.4-.6.5-.9.5-1.7zM301.5 159.4v.9c0 .3.1.5.3.8s.4.5.7.8l.9.9.9.9c.3.3.5.7.7 1 .2.4.3.7.3 1.1v5.3c0 1.2-.3 2.1-.9 2.8s-1.5 1.1-2.7 1.1-2.1-.4-2.7-1.1-.9-1.6-.9-2.8v-1.8h1.7v1.9c0 .7.2 1.3.5 1.7s.8.6 1.4.6 1.1-.2 1.4-.6.5-.9.5-1.7v-5.5c0-.2-.1-.5-.3-.7-.2-.3-.4-.5-.7-.8s-.6-.6-.9-.8l-.9-.9c-.3-.3-.5-.6-.7-.9s-.3-.6-.3-1v-1.3h1.7zM312.2 159.4v6.8c.2-.2.5-.4.9-.5.3-.1.7-.2 1-.2 1.2 0 2.1.4 2.7 1.1s.9 1.7.9 2.8v1.8c0 1.2-.3 2.1-.9 2.8s-1.5 1-2.7 1-2.1-.3-2.7-1-.9-1.6-.9-2.8v-11.8zm0 11.9c0 .7.2 1.3.5 1.7s.8.6 1.4.6 1.1-.2 1.4-.6.5-.9.5-1.7v-2c0-.7-.2-1.3-.5-1.7s-.8-.6-1.4-.6-1.1.2-1.4.6-.5.9-.5 1.7zM322.7 175v-11.8c0-1.2.3-2.2.9-2.9s1.5-1.1 2.7-1.1 2.1.4 2.7 1.1.9 1.7.9 2.9V175h-1.7v-11.9c0-.7-.1-1.3-.4-1.7s-.8-.6-1.4-.6-1.1.2-1.4.6-.5.9-.5 1.7V175zM342.1 166v5.3c0 1.2-.3 2.1-.9 2.8s-1.5 1.1-2.7 1.1-2.1-.4-2.7-1.1-.9-1.6-.9-2.8v-11.8h1.7v11.9c0 .7.2 1.3.5 1.7s.8.6 1.4.6 1.1-.2 1.4-.6.5-.9.5-1.7V166zM358.3 165.5c1 .1 1.8.5 2.3 1.2s.8 1.6.8 2.7v1.8c0 1.2-.3 2.1-.9 2.8s-1.5 1.1-2.7 1.1-2.1-.4-2.7-1.1-.9-1.6-.9-2.8v-1.8h1.7v1.9c0 .7.2 1.3.5 1.7s.8.6 1.4.6 1.1-.2 1.4-.6.5-.9.5-1.7v-2c0-.7-.2-1.3-.5-1.7s-.8-.6-1.4-.6h-1.2v-3.8l-2.2-.5V161l2.2.7v-2.2h1.7v2.6l2.2.5v1.8l-2.2-.6zM371.2 164.3c.8.2 1.4.7 1.8 1.3q.6 1.05.6 2.4v3.1c0 1.2-.3 2.1-.9 2.8s-1.5 1.1-2.7 1.1-2.1-.4-2.7-1.1-.9-1.6-.9-2.8V168c0-1.1.2-1.9.7-2.6s1.2-1.1 2.2-1.2c.1-.1.2-.3.4-.4.1-.1.3-.2.4-.3.3-.2.5-.4.5-.5.1-.1.1-.3.1-.6v-.2c0-.3 0-.6-.1-.7-.1-.2-.2-.3-.3-.4s-.2-.1-.3-.1h-.5c-.1 0-.2.1-.3.1-.1.1-.2.2-.2.3-.1.1-.1.3-.1.5v.8h-1.7v-.8c0-.3 0-.6.1-.9s.3-.6.5-.9.5-.5.8-.6c.3-.2.8-.2 1.3-.2.8 0 1.4.3 1.9.8s.7 1.2.7 2v.3c0 .5-.2.8-.4 1.1-.4.4-.6.6-.9.8m.7 3.7c0-.7-.2-1.3-.5-1.7s-.8-.6-1.4-.6-1.1.2-1.4.6-.5.9-.5 1.7v3.3c0 .7.2 1.3.5 1.7s.8.6 1.4.6 1.1-.2 1.4-.6.5-.9.5-1.7zM383 159.3q.9 0 1.5.3c.4.2.7.4.9.8.2.3.3.8.4 1.2.1.5.1 1 .1 1.6v8.1c0 1.2-.3 2.1-.9 2.8s-1.5 1.1-2.7 1.1-2.1-.4-2.7-1.1-.9-1.6-.9-2.8v-1.8h1.7v1.9c0 .7.2 1.3.5 1.7s.8.6 1.4.6 1.1-.2 1.4-.6.5-.9.5-1.7v-8.2c0-.7-.1-1.3-.2-1.7q-.15-.6-.9-.6c-.4 0-.7.1-.8.4s-.2.6-.2 1.1v2.1h-1.6v-2c0-.7-.1-1.1-.2-1.3q-.15-.3-.6-.3h-.5c-.1 0-.2 0-.4.1h-.3c-.1 0-.2 0-.4-.1v-1.6c.3.1.4.1.5.1h.3c.1 0 .2 0 .2-.1h.5c.4 0 .7.1 1 .3s.5.5.6 1c0-.2.1-.4.2-.6s.3-.3.4-.4c.2-.1.4-.2.5-.2.3-.1.5-.1.7-.1M399.7 166.3c.3.1.5.2.7.4s.4.5.5.8.2.6.3 1 .1.7.1 1v1.8c0 1.2-.3 2.1-.9 2.8s-1.5 1.1-2.7 1.1-2.1-.4-2.7-1.1-.9-1.6-.9-2.8v-1.8h1.7v1.9c0 .7.2 1.3.5 1.7s.8.6 1.4.6 1.1-.2 1.4-.6.4-.9.4-1.7v-2c0-.7-.1-1.3-.4-1.7s-.8-.6-1.4-.6h-.1v-1.6h.1c.6 0 1.1-.2 1.4-.6s.4-1 .4-1.7v-.2c0-.7-.1-1.3-.2-1.7-.2-.4-.5-.6-1.1-.6s-.9.2-1.1.6-.2.9-.2 1.7v.8c0 1.2-.3 2.2-.7 2.8-.5.7-1.3 1-2.3 1-1.1 0-1.8-.3-2.3-1s-.7-1.6-.7-2.8v-.8c0-1.2.2-2.2.7-2.8.5-.7 1.3-1 2.3-1 .5 0 .9.1 1.3.3s.7.5.8 1c.2-.4.4-.8.8-1s.9-.3 1.4-.3q.9 0 1.5.3c.4.2.7.4.9.8.2.3.4.8.5 1.2.1.5.1 1 .1 1.6 0 .3 0 .7-.1 1s-.2.7-.3.9c-.1.3-.3.5-.5.7-.1.4-.3.5-.6.6m-4.4-3.2v-.6c0-.2-.1-.5-.1-.7-.1-.2-.2-.4-.4-.6s-.4-.2-.8-.2c-.3 0-.6.1-.8.2-.2.2-.3.3-.4.6-.1.2-.1.4-.1.7v2c0 .2.1.5.1.7.1.2.2.4.4.6s.4.2.8.2c.3 0 .6-.1.8-.2.2-.2.3-.3.4-.6.1-.2.1-.4.1-.7v-1.4M406.5 175v-11.8c0-1.2.3-2.2.9-2.9s1.5-1.1 2.7-1.1 2.1.4 2.7 1.1.9 1.7.9 2.9V175H412v-11.9c0-.7-.1-1.3-.4-1.7s-.8-.6-1.4-.6-1.1.2-1.4.6-.5.9-.5 1.7V175z" class="st0"/></svg>