<svg xmlns="http://www.w3.org/2000/svg" xml:space="preserve" id="Layer_1" x="0" y="0" viewBox="0 0 447.3 458.1"><style>.st7{fill:#de2027}.st9{fill-rule:evenodd;clip-rule:evenodd;fill:#d81f26}</style><path d="M66 134.3c24.3 11.4 46.8 21.9 71.1 33.2 4.6.8 6-3 5.6-7.3-12.8-14.3-26.7-53-41.1-72-.3-4 1.2-7.5 4.6-10.1 6.9-1.1 11.7.1 15.1 5.8 25 31.5 30.8 48.4 63.5 67.7 11.4-24.3 15.3-32.7 26.6-57 6.3-13.4 39.7-31.9 67.4-25.9 21.3 5.4 40.3 15.9 58.7 27.4 40.8 39.1 50.7 115.9 45.1 147.9-17.8 38.2-25 81.6-53.5 114.6S225 432.7 161 419.6c-33.8-6.9-62.5-29.2-93.7-43.8-32-25.3-51.1-66.8-38.8-107 5.7-17.2 20.1-43.1 28.6-50.9 11.4-10.4 37.3-14.1 41.6-17.8 6.8-3.1 11.8-11.8 8.6-19.4-20.8-9.7-41.6-16.2-60-30-6-4.2 3.8-22 18.7-16.4z" style="fill:none;stroke:#58ab40;stroke-width:.8504;stroke-miterlimit:2.6131"/><path d="m329.5 85.6 10.8-6.4c10.6-3.4 18.4-5.6 26.2 1.8 4.1 7.3 4.8 17.9-.2 25.3-18.4 9.6-60.3 34.9-74.9 46.4v22c24.7 0 59-14.4 81.6-25.1 7.4-3.5 31.2-9.9 61.7-7.9 5.8 5.4 7.2 10.6 2.1 23.5s-22.7 22.1-56.9 29.9c-22 2.1-55.5 10.7-77.5 12.7-3.8 1.3-6.2 7.3 0 11 25.7 3.8 51.4 0 77.2 0 41.1 5.4 41.2 26.8 44.1 41.2 3.4 24.9 1.3 59.7-8.4 79.7-9.7 20.1-48 38.4-79.7 44.3-29.4 5.5-59 3.6-88.2 0-24.1-3-68.2-28.6-81-40.2s-60-65-62.3-92.1c-2.2-27.1-12.2-79.8 8.3-134.8 17-34 72.3-64.6 101.9-74.6 28.1-9.6 58.4-6.4 65.9 6.2 8.3 13.9 14.5 27.7 12.9 39.6s-5.8 17.6-14 29.5c3.5.3 5.2-.5 10.1-1.2 31.6-22.2 17.5-13.8 40.3-30.8z" style="fill:none;stroke:#0197d5;stroke-width:.8504;stroke-miterlimit:2.6131"/><path d="M233.9 104c25.8 7.1 37.3 9.3 49.2 17l38.4 32.7c22.4 31.3 35.7 62.4 35.2 82.9 0 41.7-6.1 49.6-16.2 65.6-19.6 23-34.9 48.3-58.8 69-29.5 25.7-68.7 19.7-98.8-1.7-20.3-14.4-26.1-44-17.1-58.8-29.3 11.6-49.2 32.3-69.9 61.1l-16.5-27.3 62.1-62.8c-12.6-3.6-52.2-.1-68.3-2.5s-19.6-2.8-21.4-12.7c-2.2-12.6 4.1-21.2 19.6-21.4s43 1.3 64.5 2c-11.1-17.9-25.1-20-23.2-45.4 2.8-38 31.3-58.6 49-78.1 18.6-15 46.3-26.7 72.2-19.6z" style="fill:none;stroke:#f9a73d;stroke-width:.8504;stroke-miterlimit:2.6131"/><path d="M326.2 440.5c-7.6-13.2-17.8-33.5-28.3-44.4l-30.6-32c-2.7 2.6-7 4.1-8 7.7-4.2 15-1.9 55.6 5.6 69.4-1.8 8.2-8.2 15-15.3 16.5-9.9-4.8-14.1-8.7-21.4-23.6-2.3-13.5-9.3-50.5-4.3-67.3-26.2 4.6-23.2 4.9-38.5 5.1s-33.3-2.8-51-18.5c-9.2-8.2-12.2-9.6-28-38.4-15.8-28.9-7.8-81.2-.3-103.1 13.3-18.3 30.8-34.4 48-46 26.2-17.6 94.4-28.5 129.1-7.3 24.6 15 45.5 35.6 65.1 58.4s29.5 65.6 27.6 75.8c-3.6 19.8-20.4 42.6-37.6 49.3-14.5 5.7-36.5 4.3-39.3 7 17.9 18.6 33.2 34.6 51.1 53.3 9.1 11.1 11.8 24-3.8 30.2l-20.1 7.9z" style="fill:none;stroke:#fff200;stroke-width:.8504;stroke-miterlimit:2.6131"/><path d="m133.7 59.3-13-7.8c-12.8-4.2-22.2-6.8-31.6 2.2-5 8.9-5.8 21.6.3 30.5 22.2 11.6 72.8 42.2 90.4 56v26.6c-29.8 0-71.2-17.3-98.5-30.3-8.9-4.2-37.6-12-74.4-9.6-7 6.5-8.7 12.8-2.5 28.4S31.9 182 73 191.4c26.6 2.5 66.9 12.9 93.5 15.4 4.6 1.5 7.5 8.9 0 13.3-31 4.6-62.1 0-93.1 0-49.7 6.5-49.8 32.3-53.2 49.8-4.2 30.1-1.6 72 10.2 96.2s57.9 46.3 96.2 53.5c35.5 6.7 71.2 4.4 106.4 0 29.1-3.6 82.4-34.5 97.8-48.5s72.4-78.4 75.1-111.1 14.7-96.3-10.1-162.7c-20.5-41.1-87.3-77.9-123-90.1-33.9-11.6-70.5-7.7-79.5 7.5-10 16.7-17.5 33.4-15.5 47.7s7 21.2 16.8 35.6c-4.2.3-6.3-.6-12.1-1.5-38.3-26.8-21.3-16.7-48.8-37.2z" style="fill:none;stroke:#f2724c;stroke-width:.8504;stroke-miterlimit:2.6131"/><path d="M430.1 302.1c-28.3-3-54.5-5.7-82.8-8.7-4.9.8-4.9 5.1-3.1 9.3 17.8 9.9 45.2 43.9 66.2 58 1.7 3.9 1.4 8-1.1 11.7-6.5 3.5-11.8 4-17.2-.6-36-23-47.6-37.8-87.2-45.9-3 28.3-4 38.1-7 66.4-1.6 15.6-28.8 45.8-58.7 49.3-23.3 2-45.9-2-68.4-7.2-54.5-25.1-91-98.7-96.4-132.8 4.7-44.5-3.1-90.5 14-133.4 17.1-43 78.8-110.4 147.4-119.4 36.3-4.8 72.8 7.6 109.2 11.5 40.8 14.3 74.4 49.2 76 93.8.3 19.2-5.2 50.2-11 61-7.8 14.4-32.5 27-35.6 32.2-5.7 5.5-7.8 15.9-2 22.4 24.3 2.5 47.3 1.8 70.5 9.3 7.8 2.4 4 23.6-12.8 23.1z" style="fill:none;stroke:#33a543;stroke-width:.8504;stroke-miterlimit:2.6131"/><path d="M218.6 202.3c-1.5-1.1-2.9-2.8-4.1-4.7-1.3-2-2.5-6.2-2.8-7.1-.2 0-.5-.1-.7 0-.9.3-5.2 6.7-6.1 7.8-1.2 1.3-3.8 5.7-3.9 7.3-.1.7 0 1.4 0 2.1.1 1.7 2.8 7.8 3.3 9.4l.7 2.1c2.6 7.7 6.7 9.1 7.7 9.1h2.1c.6 0 1.4-.7 1.4-1.4v-4.2c-1.4-1.4-1.4-1.9-1.8-3.6-.2-1-.5-2.8-.5-3.4-.1-.9-.1-2.1-.2-3-.2-1.7 1.2-6.1 3-7s3.9-.7 5.7-.4c1.1.2 3.7 1.9 4.2 3.5s-.1 5.8-.8 7.8c-.5 1.7-2.2 4-3 4.8-.4.5-1.8 1.5-2.5 2.5-.2.9 0 3.5 0 4.4 0 .6.9 1.4 1.4 1.4.8.1 1.9-.7 2.7-1.2.9-.6 5.5-4 6.3-5.1.6-.8 3.8-4.3 4.2-6.3.7-2.1.5-4 .5-5.4.4-2.6-1.8-11.2-2.2-12.2-.8-2-4.4-7-4.8-7.6-.8 2.2-1 4.3-1.4 5.6-.5 1.7-1 2.8-2.1 4.9h-6.3zm17-48.1c0 2.8.4 4.2 0 8.4-.6 5.7-1.6 11.4-2.8 15.3-1.1 3.9-2.8 8.3-2.8 9.8 1.3.5 3.6 3.2 4.4 4 2 2.1 5.8 6.5 7.1 10 .7 2 2.5 7.6 2.5 9.7 0 2.2-.2 5.7-1.1 7.4s-4.2 5.9-6 7.7c-1.7 1.7-9 7-10.4 8.6-.1 1 1.1 1.4 1.1 2.4 0 1.9-2 3.5-4 3.8-.3 1.1-.6 4.4-.9 5.1-.7 3.4-.5 23.4-.5 28.8.9 2 1.8 3.6 4.1 6.7 1.6 2.1 4 6.2 4.3 7.6l.7 3.5c.8 4.7 1 9 0 13.3-.5 4.5-1.9 14.4-3 18.4-.4 1.3-2.1 9.5-2.6 11.6-.4 2.1-1.3 5.4-2.1 7.8s-3.3 7.1-4.8 8.8c-.7 1.1-1.5 1.6-2.2 2.2h-1.4c-1-.5-2.4-1.9-2.8-2.8-1.4-3.3-5.1-18.1-5.6-20.9s-1.8-14.9-2.1-16.7c-.6-4-.5-8.4-.5-12.6-.1-2.3.8-10.5.9-12.6s1.5-6.1 2.3-7.5c.9-1.7 2.1-5.2 2.9-7.1 0-11.8-2.1-17.2-2.1-24.6v-10.9c-1.2-.2-2.4-2.1-2.5-3.1-.1-1.1 2.2-2 2.5-3.9-1.4-1-4.4-4.7-5.4-5.8s-3.9-6.2-4.3-7.4c-.6-1.6-3.4-10.1-3.5-11.4-.3-2.5.1-4.8.2-7.3.4-6 5.4-15.1 6.1-16.1.6-1 4.1-4.2 5.6-4.9-.2-2.3-.4-4.5-.7-7 0-4.7-.1-8.8 0-13.5.1-2.7 2.7-10.5 3.5-12.3.3-.6 4-7.8 4.5-9.4l18.7.2c.7 2.1 2.7 15.5 2.7 16.7" style="fill-rule:evenodd;clip-rule:evenodd"/><path d="m122.1 346 11.2-38.6c2.9-9.6 4.7-16.8 6.1-24.2h.2c1 7.5 2.7 14.7 5.1 24.2l9.9 38.6h10.6l22.3-74.1h-10.4l-10.4 37.4c-2.4 9.2-4.7 17.5-6.3 25.6h-.2c-1.2-7.8-3.3-16.6-5.5-25.4l-9.6-37.6h-10.6L124 309.3c-2.7 9.6-5.1 18.4-6.4 25.7h-.2c-1.4-7.1-3.5-16.4-5.8-25.6l-9.3-37.5H91.6l19.9 74.1zM242.7 342.3c4.2 2.6 12.5 4.7 20 4.7 18.5 0 27.5-9.9 27.5-21.3 0-10.9-6.8-16.9-20-21.8-10.8-4-15.6-7.4-15.6-14.3 0-5.1 4.1-11.1 14.8-11.1 7.1 0 12.4 2.2 14.9 3.5l2.8-7.8c-3.5-1.9-9.3-3.6-17.4-3.6-15.3 0-25.4 8.6-25.4 20.1 0 10.4 7.9 16.7 20.7 21 10.6 3.9 14.8 7.8 14.8 14.7 0 7.5-6.1 12.7-16.4 12.7-7 0-13.6-2.2-18.2-4.8zM364 307h-25.9v7.7h16v22.1c-2.3 1.1-6.9 2-13.5 2-18.3 0-30.3-11.1-30.3-29.9 0-18.6 12.5-29.8 31.6-29.8 7.9 0 13.2 1.4 17.4 3.2l2.4-7.8c-3.4-1.5-10.5-3.4-19.6-3.4-26.3 0-42.4 16.2-42.5 38.3 0 11.6 4.2 21.5 11 27.6 7.7 6.9 17.5 9.8 29.4 9.8 10.6 0 19.6-2.5 24.1-4.1V307z" class="st7"/><path d="m122.1 346 11.2-38.6c2.9-9.6 4.7-16.8 6.1-24.2h.2c1 7.5 2.7 14.7 5.1 24.2l9.9 38.6h10.6l22.3-74.1h-10.4l-10.4 37.4c-2.4 9.2-4.7 17.5-6.3 25.6h-.2c-1.2-7.8-3.3-16.6-5.5-25.4l-9.6-37.6h-10.6L124 309.3c-2.7 9.6-5.1 18.4-6.4 25.7h-.2c-1.4-7.1-3.5-16.4-5.8-25.6l-9.3-37.5H91.6l19.9 74.1h10.6zm120.6-3.7c4.2 2.6 12.5 4.7 20 4.7 18.5 0 27.5-9.9 27.5-21.3 0-10.9-6.8-16.9-20-21.8-10.8-4-15.6-7.4-15.6-14.3 0-5.1 4.1-11.1 14.8-11.1 7.1 0 12.4 2.2 14.9 3.5l2.8-7.8c-3.5-1.9-9.3-3.6-17.4-3.6-15.3 0-25.4 8.6-25.4 20.1 0 10.4 7.9 16.7 20.7 21 10.6 3.9 14.8 7.8 14.8 14.7 0 7.5-6.1 12.7-16.4 12.7-7 0-13.6-2.2-18.2-4.8l-2.5 8zM364 307h-25.9v7.7h16v22.1c-2.3 1.1-6.9 2-13.5 2-18.3 0-30.3-11.1-30.3-29.9 0-18.6 12.5-29.8 31.6-29.8 7.9 0 13.2 1.4 17.4 3.2l2.4-7.8c-3.4-1.5-10.5-3.4-19.6-3.4-26.3 0-42.4 16.2-42.5 38.3 0 11.6 4.2 21.5 11 27.6 7.7 6.9 17.5 9.8 29.4 9.8 10.6 0 19.6-2.5 24.1-4.1V307z" style="fill:none;stroke:#de2027;stroke-width:.216;stroke-miterlimit:22.9256"/><path d="M321.1 170.2c.9 2.1 1.7 4.1 2.6 6.3.2.3.6.2.8-.1 0-1.7 1.4-4.9 1.6-7 .2-.3.5-.4.9-.4q.75.45.6 1.2c-.2 3.5-.8 4.9.1 8 2.1-.9 2.9-1.2 5-2.1 1.2-.5 4.4.3 5.8 2.3 1.1 1.6 1.7 3.4 2.2 5.2.3 4.9-3.5 10.4-5.7 12.1-3.4 1.4-6.3 3.8-10.1 4.2-3.7.5-11-1.3-14.3-5.9-1.8-2.4-2.3-5.5-3.4-8.2-.6-3.5.6-7.2 3.7-9.1 1.4-.8 3.8-1.6 4.8-1.6 1.3 0 3.2 1.3 3.7 1.3.6.2 1.4-.1 1.7-.7-.8-1.8-1.7-3.5-2.1-5.4-.2-.7 1.5-1.3 2.1-.1M301.5 216.4l.7-.9c.8-.7 1.3-1.1 2.2-.8.6.5 1 1.3.9 2.1-1.2 1.4-3.8 5-4.6 6.5l.8 1.8c2.1-.9 4.4-3.2 5.9-4.9.5-.5 2.2-1.9 4.9-2.8.7.2 1 .6 1 1.9s-1.1 2.6-3.7 4.5c-1.8.9-4.2 2.8-6 3.8-.3.2-.3.8.4.9 2.3-.6 4.3-1.8 6.4-2.7 3.6-1 4.4.8 5.1 1.9 1.2 2 2.2 4.9 2.1 6.9s-2.7 4.9-5.1 6.5c-2.3 1.5-4.8 2.4-7.3 3.1-2.1.6-6.7 0-8.1-.5-1.5-.5-7.2-3.3-8.4-5.5-1.1-2.2-3.8-6.2-4-11.5.2-3.4 3.8-7.9 5.9-9.7 2-1.8 4.6-2.6 5.7-1.8 1.2.9 2.2 1.8 2.4 2.8.3 1 .1 1.7-.1 2.9.3-.1.4-.2.8-.5 1.6-3 .8-1.8 2.1-4M279.1 116.9c2 1.8 2.9 2.5 3.6 3.7.6 1.5 1.3 3.1 1.9 4.6.6 3.8.4 7.1-.6 8.9-1.9 3.7-2.8 4.1-4.4 5-2.8 1.1-5.2 2.7-8.2 3.4-3.7.9-6.9-1.3-8.6-4.6-1.1-2.2-.3-5 1.1-5.9-3.1-.3-5.8.6-8.9 2.3l-.2-3.1 8.3-2.8c-.9-.9-4.7-2.1-6.6-3.2-.7-.7-.3-1.1-.7-2l2.7-1.1c1.9 1 3.7 2 5.6 3.1-.2-2.1-1.3-2.9 0-5 1.9-3.2 5.4-3.8 7.8-4.7 2.3-.6 5.2-.4 7.2 1.4M295.2 141.3c.2 1.3.4 3.4.9 4.6l1.5 3.7c.3-.1.7-.1.9-.4.8-1.1 2-4.6 1.8-6 .4-.6 1.2-1 1.8-.9.7.7.9 1.2 1 2.7-.2 1.2-.9 4.5-1.8 5.8 2.3.5 2.1.3 3.4.8s2.7 1.3 3.7 3.2c.5 1 .7 1.2 1.1 4.1s-2 7-3.3 8.6c-1.7 1.1-3.7 1.9-5.5 2.3-2.8.6-8.8-.7-11-3.6-1.6-2.1-2.7-4.4-3.6-7-.9-2.5-.3-6.4.1-7.2.9-1.5 3.1-2.9 4.7-2.9 1.4 0 3.2.8 3.5.7-.9-2.1-1.7-4-2.6-6.1-.4-1.2-.2-2.4 1.3-2.4z" class="st9"/></svg>